<svg width="142" height="17" viewBox="0 0 142 17" fill="none" xmlns="http://www.w3.org/2000/svg">
<path d="M20.6241 12.9604C20.6241 14.5314 20.3352 15.5974 19.6998 16.1584C19.0643 16.7195 17.9666 17 16.2913 17H4.33279C2.71522 17 1.5598 16.7195 0.924329 16.1584C0.288853 15.5974 0 14.5314 0 12.9604V4.0396C0 2.46865 0.288853 1.40264 0.924329 0.841585C1.5598 0.280529 2.65744 0 4.33279 0H16.3491C18.0822 0 19.2376 0.280529 19.8153 0.841585C20.393 1.40264 20.6819 2.52475 20.6819 4.20792L16.7535 4.88119V2.9736H4.04394V13.6898H16.6957V9.93069H10.1098V7.06931H20.6241V12.9604ZM46.0431 13.6898C46.0431 14.9802 45.7543 15.8779 45.2343 16.3267C44.7144 16.7756 43.7323 17 42.3458 17H31.3116C29.9251 17 28.943 16.7756 28.4231 16.3828C27.8454 15.8779 27.5566 15.0363 27.5566 13.6898V6.39604C27.5566 5.04951 27.8454 4.20792 28.3653 3.75908C28.8853 3.31023 29.8674 3.14191 31.2539 3.14191H42.288C43.6745 3.14191 44.6566 3.36634 45.1766 3.75908C45.6965 4.20792 45.9854 5.04951 45.9854 6.39604V13.6898H46.0431ZM42.5191 14.3069V5.66667H31.0228V14.3069H42.5191ZM71.9243 12.9604C71.9243 14.5314 71.6355 15.5974 71 16.1584C70.3645 16.7195 69.2669 17 67.5915 17H57.1928C55.5753 17 54.4199 16.7195 53.7844 16.1584C53.1489 15.5974 52.86 14.5314 52.86 12.9604V4.0396C52.86 2.46865 53.1489 1.40264 53.7844 0.841585C54.4199 0.280529 55.5175 0 57.1928 0H67.5915C69.6713 0 70.9422 0.448845 71.4622 1.40264C71.751 1.9637 71.9243 3.36634 71.9243 5.61056L67.8804 6.22772V3.0297H56.9618V13.7459H67.8804V10.099L71.9243 10.9406V12.9604ZM97.1123 13.6898C97.1123 14.9802 96.8234 15.8779 96.3035 16.3267C95.7836 16.7756 94.8015 17 93.415 17H82.3808C80.9943 17 80.0122 16.7756 79.4923 16.3828C78.9723 15.934 78.6835 15.0924 78.6835 13.7459V6.45215C78.6835 5.10561 78.9723 4.26403 79.4923 3.81518C80.0122 3.36634 80.9943 3.19802 82.3808 3.19802H93.415C94.8015 3.19802 95.7836 3.42244 96.3035 3.81518C96.8234 4.26403 97.1123 5.10561 97.1123 6.45215V13.6898ZM93.646 14.3069V5.66667H82.1497V14.3069H93.646ZM121.26 9.9868C121.26 14.6436 118.141 16.9439 111.844 16.9439H103.12V3.08581H112.71C115.252 3.08581 117.274 3.59076 118.718 4.60066C120.452 5.83498 121.26 7.63036 121.26 9.9868ZM117.736 9.81848C117.736 7.0132 116.061 5.61056 112.768 5.61056H106.644V14.363H111.151C113.288 14.363 114.848 14.1386 115.772 13.6337C117.043 12.9604 117.736 11.67 117.736 9.81848ZM142 16.9439H126.517V3.08581H141.827V5.55446H130.041V8.58416H136.916V10.9967H130.041V14.4191H142V16.9439Z" fill="white"/>
</svg>