<svg width="191" height="21" viewBox="0 0 191 21" fill="none" xmlns="http://www.w3.org/2000/svg">
<path d="M0 21V0H2.28692L18.5319 14.0466C18.8999 14.3708 19.2876 14.7553 19.7017 15.2034C20.1222 15.6547 20.5494 16.1504 20.9897 16.6907C20.8845 16.0138 20.7991 15.3114 20.74 14.5805C20.6874 13.8432 20.6611 12.8263 20.6611 11.5297V0H23.9863V21H21.9491L5.28357 6.40678C5.19485 6.34004 5.07327 6.23517 4.91556 6.08898C4.09082 5.37076 3.48295 4.6875 3.08865 4.04237C3.16751 4.67797 3.22337 5.35805 3.25951 6.07627C3.30223 6.79767 3.32523 7.64936 3.32523 8.63136V21H0Z" fill="white"/>
<path d="M38.5599 18.0763H56.5267V2.86017H38.5599V18.0763ZM34.9456 4.97034C34.9456 3.06356 35.2939 1.76059 35.997 1.05508C36.7067 0.352754 38.0539 0 40.0451 0H55.0546C57.0064 0 58.3339 0.349577 59.037 1.04237C59.7468 1.73835 60.1016 3.04767 60.1016 4.97034V16.0297C60.1016 17.9619 59.7468 19.2775 59.037 19.9703C58.3339 20.6568 57.0064 21 55.0546 21H40.0451C38.0539 21 36.7067 20.6504 35.997 19.9449C35.2939 19.2426 34.9456 17.9364 34.9456 16.0297V4.97034Z" fill="white"/>
<path d="M74.7072 21L66.8344 0H70.4882L76.3632 16.6907L82.7771 0H84.9851L91.1756 16.6907L97.1032 0H100.35L92.4899 21H89.7955L83.776 5.13559L77.5592 21H74.7072Z" fill="white"/>
<path d="M110.946 13.1568H122.631L116.769 2.40254L110.946 13.1568ZM103.074 21L114.929 0H118.806L130.858 21H126.876L124.103 15.839H109.422L106.649 21H103.074Z" fill="white"/>
<path d="M153.967 2.72034H141.52V10.0932H153.967C154.867 10.0932 155.481 9.9375 155.807 9.62288C156.139 9.30191 156.306 8.74258 156.306 7.94491V4.89407C156.306 4.09958 156.135 3.54025 155.794 3.2161C155.458 2.88559 154.851 2.72034 153.967 2.72034ZM137.879 21V0H155.373C157.003 0 158.176 0.324153 158.895 0.966102C159.612 1.61123 159.973 2.65042 159.973 4.08051V8.75847C159.973 10.1822 159.612 11.2182 158.895 11.8602C158.176 12.4958 157.003 12.8136 155.373 12.8136H152.192L162.115 21H156.74L147.908 12.8136H141.52V21H137.879Z" fill="white"/>
<path d="M169.931 21V0H190.842V2.82203H173.572V8.66949H184.126V11.4407H173.572V18.1144H191V21H169.931Z" fill="white"/>
</svg>
